<svg viewBox="0 0 800 800" xmlns="http://www.w3.org/2000/svg">
  <!-- Butterfly head/body center -->
  <circle cx="400" cy="200" r="60" fill="#1f4a4a"/>

  <!-- Left upper wing -->
  <path d="M 400 200 Q 320 120 200 160 Q 120 200 160 300 Q 240 360 340 340 Q 380 280 400 240 Z"
        fill="url(#leftUpperGradient)"/>

  <!-- Right upper wing -->
  <path d="M 400 200 Q 480 120 600 160 Q 680 200 640 300 Q 560 360 460 340 Q 420 280 400 240 Z"
        fill="url(#rightUpperGradient)"/>

  <!-- Left lower wing -->
  <path d="M 400 400 Q 340 480 240 520 Q 180 580 220 660 Q 280 700 360 660 Q 400 600 400 520 Z"
        fill="url(#leftLowerGradient)"/>

  <!-- Right lower wing -->
  <path d="M 400 400 Q 460 480 560 520 Q 620 580 580 660 Q 520 700 440 660 Q 400 600 400 520 Z"
        fill="url(#rightLowerGradient)"/>

  <!-- Butterfly body -->
  <ellipse cx="400" cy="400" rx="15" ry="250" fill="#1f4a4a"/>

  <defs>
    <!-- Left upper wing gradient -->
    <linearGradient id="leftUpperGradient" x1="0%" y1="0%" x2="100%" y2="100%">
      <stop offset="0%" style="stop-color:#40E0D0;stop-opacity:1" />
      <stop offset="50%" style="stop-color:#20B2AA;stop-opacity:1" />
      <stop offset="100%" style="stop-color:#66CDAA;stop-opacity:1" />
    </linearGradient>

    <!-- Right upper wing gradient -->
    <linearGradient id="rightUpperGradient" x1="100%" y1="0%" x2="0%" y2="100%">
      <stop offset="0%" style="stop-color:#40E0D0;stop-opacity:1" />
      <stop offset="50%" style="stop-color:#66CDAA;stop-opacity:1" />
      <stop offset="100%" style="stop-color:#20B2AA;stop-opacity:1" />
    </linearGradient>

    <!-- Left lower wing gradient -->
    <linearGradient id="leftLowerGradient" x1="0%" y1="100%" x2="100%" y2="0%">
      <stop offset="0%" style="stop-color:#20B2AA;stop-opacity:1" />
      <stop offset="50%" style="stop-color:#40E0D0;stop-opacity:1" />
      <stop offset="100%" style="stop-color:#66CDAA;stop-opacity:1" />
    </linearGradient>

    <!-- Right lower wing gradient -->
    <linearGradient id="rightLowerGradient" x1="100%" y1="100%" x2="0%" y2="0%">
      <stop offset="0%" style="stop-color:#20B2AA;stop-opacity:1" />
      <stop offset="50%" style="stop-color:#66CDAA;stop-opacity:1" />
      <stop offset="100%" style="stop-color:#40E0D0;stop-opacity:1" />
    </linearGradient>
  </defs>
</svg>