<svg viewBox="0 0 800 800" xmlns="http://www.w3.org/2000/svg">
  <!-- Butterfly head (dark circle at top) -->
  <circle cx="400" cy="160" r="50" fill="#1a5f5f"/>

  <!-- Left upper wing -->
  <path d="M 400 200 Q 300 120 180 180 Q 120 240 160 320 Q 240 380 320 340 Q 380 280 400 240 Z"
        fill="url(#leftUpperGradient)"/>

  <!-- Right upper wing -->
  <path d="M 400 200 Q 500 120 620 180 Q 680 240 640 320 Q 560 380 480 340 Q 420 280 400 240 Z"
        fill="url(#rightUpperGradient)"/>

  <!-- Left lower wing -->
  <path d="M 400 400 Q 340 460 260 520 Q 200 580 240 640 Q 300 680 360 640 Q 400 580 400 520 Z"
        fill="url(#leftLowerGradient)"/>

  <!-- Right lower wing -->
  <path d="M 400 400 Q 460 460 540 520 Q 600 580 560 640 Q 500 680 440 640 Q 400 580 400 520 Z"
        fill="url(#rightLowerGradient)"/>

  <!-- Butterfly body -->
  <ellipse cx="400" cy="400" rx="8" ry="200" fill="#1a5f5f"/>

  <defs>
    <!-- Left upper wing gradient - turquoise to teal -->
    <linearGradient id="leftUpperGradient" x1="0%" y1="0%" x2="100%" y2="100%">
      <stop offset="0%" style="stop-color:#40E0D0;stop-opacity:1" />
      <stop offset="50%" style="stop-color:#20B2AA;stop-opacity:1" />
      <stop offset="100%" style="stop-color:#66CDAA;stop-opacity:1" />
    </linearGradient>

    <!-- Right upper wing gradient - turquoise to medium aquamarine -->
    <linearGradient id="rightUpperGradient" x1="100%" y1="0%" x2="0%" y2="100%">
      <stop offset="0%" style="stop-color:#40E0D0;stop-opacity:1" />
      <stop offset="50%" style="stop-color:#66CDAA;stop-opacity:1" />
      <stop offset="100%" style="stop-color:#20B2AA;stop-opacity:1" />
    </linearGradient>

    <!-- Left lower wing gradient - teal to turquoise -->
    <linearGradient id="leftLowerGradient" x1="0%" y1="100%" x2="100%" y2="0%">
      <stop offset="0%" style="stop-color:#20B2AA;stop-opacity:1" />
      <stop offset="50%" style="stop-color:#40E0D0;stop-opacity:1" />
      <stop offset="100%" style="stop-color:#66CDAA;stop-opacity:1" />
    </linearGradient>

    <!-- Right lower wing gradient - teal to turquoise -->
    <linearGradient id="rightLowerGradient" x1="100%" y1="100%" x2="0%" y2="0%">
      <stop offset="0%" style="stop-color:#20B2AA;stop-opacity:1" />
      <stop offset="50%" style="stop-color:#66CDAA;stop-opacity:1" />
      <stop offset="100%" style="stop-color:#40E0D0;stop-opacity:1" />
    </linearGradient>
  </defs>
</svg>